<svg width="345" height="279" viewBox="0 0 345 279" fill="none" xmlns="http://www.w3.org/2000/svg">
<path d="M204.149 100.159C207.878 89.3411 219.672 83.5947 230.491 87.3246L250.079 94.0782L243.325 113.667C239.596 124.485 227.802 130.231 216.983 126.502C206.165 122.772 200.419 110.978 204.149 100.159Z" stroke="black" stroke-width="2.96"/>
<path d="M217.655 60.9837C221.385 50.1653 233.179 44.4189 243.997 48.1488C254.816 51.8787 260.562 63.6724 256.832 74.4908C253.102 85.3092 241.309 91.0556 230.49 87.3257C219.672 83.5958 213.926 71.8021 217.655 60.9837Z" fill="#3BB3BD" stroke="black" stroke-width="2.96"/>
<path d="M282.502 127.175C286.231 116.357 280.485 104.563 269.667 100.833L250.078 94.0796L243.325 113.668C239.595 124.486 245.341 136.28 256.16 140.01C266.978 143.74 278.772 137.994 282.502 127.175Z" stroke="black" stroke-width="2.96"/>
<path d="M296.009 87.9974C299.739 77.179 293.993 65.3853 283.174 61.6554C272.356 57.9255 260.562 63.6719 256.832 74.4903C253.103 85.3087 258.849 97.1024 269.667 100.832C280.486 104.562 292.279 98.8158 296.009 87.9974Z" fill="#A17FBC" stroke="black" stroke-width="2.96"/>
<path d="M-4 167C2.66667 161.667 9.33333 161.667 16 167C22.6667 172.333 29.3333 172.333 36 167C42.6667 161.667 49.3333 161.667 56 167C62.6667 172.333 69.3333 172.333 76 167C82.6667 161.667 89.3333 161.667 96 167C102.667 172.333 109.333 172.333 116 167" stroke="black" stroke-width="4" stroke-linecap="round"/>
<path d="M-4 191C2.66667 185.667 9.33333 185.667 16 191C22.6667 196.333 29.3333 196.333 36 191C42.6667 185.667 49.3333 185.667 56 191C62.6667 196.333 69.3333 196.333 76 191C82.6667 185.667 89.3333 185.667 96 191C102.667 196.333 109.333 196.333 116 191" stroke="black" stroke-width="4" stroke-linecap="round"/>
</svg>
