<svg width="281" height="105" viewBox="0 0 281 105" fill="none" xmlns="http://www.w3.org/2000/svg">
<path d="M58.7003 71.5167C47.3658 72.5464 40.8536 73.4937 36.8556 76.6239C32.1569 80.2896 31.0441 87.0031 29.8076 100.43C28.5299 86.5088 27.3758 79.8365 22.2237 76.2532C18.2257 73.4525 11.7547 72.5464 0.914795 71.5579C12.2081 70.5282 18.7615 69.5809 22.7183 66.4919C27.4582 62.785 28.5711 56.1127 29.8076 42.6445C30.9616 55.0419 31.992 61.673 35.8252 65.5034C39.6583 69.3338 46.3354 70.4047 58.7003 71.5167Z" fill="#DAB186"/>
<g clip-path="url(#clip0_1205_2475)">
<path d="M149.591 45.2728C146.98 46.7183 144.39 48.1825 141.797 49.659C141.941 48.7069 142.084 47.7548 142.196 46.8007C142.292 46 141.039 45.9989 140.938 46.7918C140.79 48.0051 140.615 49.2241 140.434 50.4353C130.642 56.0375 120.944 61.8227 111.177 67.4515C111.099 67.4963 111.029 67.5366 110.977 67.608C110.819 67.7821 110.792 68.0045 110.864 68.2009C110.906 68.363 111.015 68.497 111.184 68.5752C111.213 68.5895 111.234 68.6083 111.263 68.6226C116.896 70.3682 122.528 71.7002 128.238 73.112C130.667 73.7169 133.092 74.3863 135.507 75.0203C136.506 75.2815 138.251 76.064 139.766 76.3584C142.026 80.093 144.196 83.8691 146.308 87.6888C144.575 88.7202 136.553 93.3209 138.86 96.3138C140.671 98.6621 147.562 94.6634 149.361 93.7484C152.214 92.3086 154.877 90.5228 157.349 88.4955C158.343 87.673 161.108 85.3832 160.658 83.7602C159.646 80.1435 151.384 84.7063 149.418 85.7999C147.33 82.039 145.191 78.3172 142.971 74.6325C143.152 74.1037 143.283 73.5418 143.419 73.1322C144.37 70.2447 145.152 67.2991 145.883 64.3526C147.409 58.2148 148.695 52.0191 150.516 45.96C150.672 45.4247 150.057 45.004 149.602 45.2561L149.591 45.2728ZM112.999 67.848C122.071 62.6102 131.099 57.2426 140.193 52.0236C139.933 53.6531 139.67 55.2949 139.403 56.9289C132.199 61.0468 124.727 64.7191 117.769 69.2639C116.18 68.8052 114.586 68.3388 112.999 67.848ZM149.676 88.8275C150.064 89.5349 151.151 88.9077 150.763 88.2003C150.524 87.769 150.278 87.3421 150.039 86.9108C151.881 85.8889 153.784 84.9557 155.806 84.3365C156.319 84.1852 157.788 83.5752 158.32 83.8162C159.876 84.5218 158.344 85.8824 157.759 86.4996C155.352 89.069 151.876 91.0963 148.743 92.6775C146.748 93.6845 143.611 95.5991 141.289 95.5739C138.842 95.5481 140.856 93.3717 141.852 92.4447C143.381 91.0241 145.137 89.8548 146.932 88.7875C147.157 89.1955 147.402 89.6024 147.62 90.0149C148.007 90.7223 149.094 90.095 148.706 89.3876C146.32 85.0223 143.841 80.7107 141.273 76.4406C141.464 76.4131 141.646 76.3701 141.806 76.2882C141.985 76.2052 142.138 76.0756 142.277 75.9227C144.833 80.1694 147.303 84.4655 149.68 88.8153L149.676 88.8275ZM143.43 68.7795C143.143 69.8045 142.846 70.8139 142.521 71.829C141.904 73.7891 141.398 74.8473 139.133 74.7062C137.211 74.5847 134.9 73.6114 133.013 73.1385C130.971 72.6307 128.976 71.9716 126.911 71.5495C124.367 71.0318 121.865 70.4072 119.379 69.7213C125.77 65.6481 132.56 62.2456 139.153 58.5216C138.989 59.5994 138.853 60.6715 138.713 61.7558C136.587 61.8553 134.801 64.0663 134.947 66.1652C135.063 67.8364 136.47 69.0005 138.044 69.3437C137.958 70.3044 137.777 71.2466 137.723 72.2094C137.671 73.0155 138.928 73.0243 138.98 72.2183C139.032 71.2877 139.206 70.37 139.295 69.4492C139.375 69.4444 139.455 69.4396 139.535 69.4348C141.416 69.1975 142.933 67.4524 143.029 65.5757C143.136 63.6101 141.798 61.9199 139.978 61.7602C140.147 60.4212 140.335 59.081 140.536 57.7441C142.779 56.4492 145.002 55.1033 147.164 53.6687C146.536 56.2358 145.944 58.8126 145.327 61.3829C144.733 63.8675 144.123 66.3411 143.432 68.7995L143.43 68.7795ZM147.613 51.8472C145.384 53.3621 143.104 54.7716 140.78 56.1236C141.047 54.4896 141.307 52.8601 141.566 51.2306C144 49.8359 146.442 48.4568 148.886 47.0977C148.438 48.6702 148.007 50.2538 147.613 51.8472Z" fill="black"/>
<path d="M149.591 44.2728C146.98 45.7183 144.39 47.1825 141.797 48.659C141.941 47.7069 142.084 46.7548 142.196 45.8007C142.292 45 141.039 44.9989 140.938 45.7918C140.79 47.0051 140.615 48.2241 140.434 49.4353C130.642 55.0375 120.944 60.8227 111.177 66.4515C111.099 66.4963 111.029 66.5366 110.977 66.608C110.819 66.7821 110.792 67.0045 110.864 67.2009C110.906 67.363 111.015 67.497 111.184 67.5752C111.213 67.5895 111.234 67.6083 111.263 67.6226C116.896 69.3682 122.528 70.7002 128.238 72.112C130.667 72.7169 133.092 73.3863 135.507 74.0203C136.506 74.2815 138.251 75.064 139.766 75.3584C142.026 79.093 144.196 82.8691 146.308 86.6888C144.575 87.7202 136.553 92.3209 138.86 95.3138C140.671 97.6621 147.562 93.6634 149.361 92.7484C152.214 91.3086 154.877 89.5228 157.349 87.4955C158.343 86.673 161.108 84.3832 160.658 82.7602C159.646 79.1435 151.384 83.7063 149.418 84.7999C147.33 81.039 145.191 77.3172 142.971 73.6325C143.152 73.1037 143.283 72.5418 143.419 72.1322C144.37 69.2447 145.152 66.2991 145.883 63.3526C147.409 57.2148 148.695 51.0191 150.516 44.96C150.672 44.4247 150.057 44.004 149.602 44.2561L149.591 44.2728ZM112.999 66.848C122.071 61.6102 131.099 56.2426 140.193 51.0236C139.933 52.6531 139.67 54.2949 139.403 55.9289C132.199 60.0468 124.727 63.7191 117.769 68.2639C116.18 67.8052 114.586 67.3388 112.999 66.848ZM149.676 87.8275C150.064 88.5349 151.151 87.9077 150.763 87.2003C150.524 86.769 150.278 86.3421 150.039 85.9108C151.881 84.8889 153.784 83.9557 155.806 83.3365C156.319 83.1852 157.788 82.5752 158.32 82.8162C159.876 83.5218 158.344 84.8824 157.759 85.4996C155.352 88.069 151.876 90.0963 148.743 91.6775C146.748 92.6845 143.611 94.5991 141.289 94.5739C138.842 94.5481 140.856 92.3717 141.852 91.4447C143.381 90.0241 145.137 88.8548 146.932 87.7875C147.157 88.1955 147.402 88.6024 147.62 89.0149C148.007 89.7223 149.094 89.095 148.706 88.3876C146.32 84.0223 143.841 79.7107 141.273 75.4406C141.464 75.4131 141.646 75.3701 141.806 75.2882C141.985 75.2052 142.138 75.0756 142.277 74.9227C144.833 79.1694 147.303 83.4655 149.68 87.8153L149.676 87.8275ZM143.43 67.7795C143.143 68.8045 142.846 69.8139 142.521 70.829C141.904 72.7891 141.398 73.8473 139.133 73.7062C137.211 73.5847 134.9 72.6114 133.013 72.1385C130.971 71.6307 128.976 70.9716 126.911 70.5495C124.367 70.0318 121.865 69.4072 119.379 68.7213C125.77 64.6481 132.56 61.2456 139.153 57.5216C138.989 58.5994 138.853 59.6715 138.713 60.7558C136.587 60.8553 134.801 63.0663 134.947 65.1652C135.063 66.8364 136.47 68.0005 138.044 68.3437C137.958 69.3044 137.777 70.2466 137.723 71.2094C137.671 72.0155 138.928 72.0243 138.98 71.2183C139.032 70.2877 139.206 69.37 139.295 68.4492C139.375 68.4444 139.455 68.4396 139.535 68.4348C141.416 68.1975 142.933 66.4524 143.029 64.5757C143.136 62.6101 141.798 60.9199 139.978 60.7602C140.147 59.4212 140.335 58.081 140.536 56.7441C142.779 55.4492 145.002 54.1033 147.164 52.6687C146.536 55.2358 145.944 57.8126 145.327 60.3829C144.733 62.8675 144.123 65.3411 143.432 67.7995L143.43 67.7795ZM147.613 50.8472C145.384 52.3621 143.104 53.7716 140.78 55.1236C141.047 53.4896 141.307 51.8601 141.566 50.2306C144 48.8359 146.442 47.4568 148.886 46.0977C148.438 47.6702 148.007 49.2538 147.613 50.8472Z" fill="black"/>
</g>
<path d="M244.626 10.7853C262.951 15.6954 273.903 34.781 269.435 53.8414L253.197 49.4905C255.164 39.8164 249.543 30.1731 240.109 27.6453C230.674 25.1174 220.985 30.6581 217.851 40.0194L201.613 35.6686C207.274 16.9277 226.301 5.87509 244.626 10.7853Z" fill="#3BB3BD" stroke="black" stroke-width="2.4225"/>
<path d="M226.443 78.644C244.768 83.5542 263.796 72.5016 269.457 53.7607L253.219 49.4099C250.085 58.7712 240.395 64.3119 230.961 61.784C221.527 59.2562 215.906 49.6129 217.872 39.9388L201.635 35.5879C197.167 54.6483 208.118 73.7339 226.443 78.644Z" fill="#7815CD" stroke="black" stroke-width="2.4225"/>
<defs>
<clipPath id="clip0_1205_2475">
<rect width="45.6567" height="45.2176" fill="white" transform="translate(108.959 64.9551) rotate(-30)"/>
</clipPath>
</defs>
</svg>
