<svg width="273" height="138" viewBox="0 0 273 138" fill="none" xmlns="http://www.w3.org/2000/svg">
<path d="M0.874512 116.604V116.346C7.54092 116.346 12.9451 121.75 12.9451 128.416C6.36341 128.416 1.01178 123.151 0.874512 116.604Z" fill="#7815CD"/>
<path d="M1.13241 137.268L0.874512 137.268C0.874511 130.601 6.27869 125.197 12.9451 125.197C12.9451 131.779 7.67974 137.13 1.13241 137.268Z" fill="#7815CD"/>
<path d="M21.7969 137.01L21.7969 137.268C15.1305 137.268 9.72629 131.863 9.72629 125.197C16.308 125.197 21.6596 130.462 21.7969 137.01Z" fill="#7815CD"/>
<path d="M21.5389 116.346L21.7968 116.346C21.7968 123.012 16.3927 128.416 9.72626 128.416C9.72626 121.835 14.9916 116.483 21.5389 116.346Z" fill="#7815CD"/>
<path d="M245.064 27.2344L268.976 27.2344L245.064 4.31942L245.064 27.2344Z" fill="#3BB3BD" stroke="black" stroke-width="2.98891"/>
</svg>
