<svg width="152" height="110" viewBox="0 0 152 110" fill="none" xmlns="http://www.w3.org/2000/svg">
<path d="M0.822281 36.1209V35.7402C10.6632 35.7402 18.6408 43.7178 18.6408 53.5587C8.92493 53.5587 1.02491 45.786 0.822281 36.1209Z" fill="#7815CD"/>
<path d="M31.7077 66.2443L31.7077 66.625C21.8668 66.625 13.8892 58.6474 13.8892 48.8065C23.605 48.8065 31.505 56.5792 31.7077 66.2443Z" fill="#7815CD"/>
<path d="M31.327 35.7402L31.7077 35.7402C31.7077 45.5811 23.7301 53.5587 13.8892 53.5587C13.8892 43.8429 21.6618 35.9429 31.327 35.7402Z" fill="#7815CD"/>
<path d="M123.904 12.9427C118.823 13.4043 115.904 13.8289 114.111 15.2321C112.005 16.8754 111.506 19.8849 110.952 25.9039C110.379 19.6633 109.862 16.6723 107.552 15.066C105.76 13.8105 102.859 13.4043 98 12.9612C103.063 12.4996 106 12.0749 107.774 10.6902C109.899 9.0285 110.398 6.03746 110.952 0C111.469 5.55742 111.931 8.53 113.649 10.2471C115.368 11.9642 118.361 12.4442 123.904 12.9427Z" fill="black"/>
<path d="M25.7301 99.8488C22.017 100.186 19.8837 100.496 18.574 101.522C17.0348 102.723 16.6702 104.922 16.2652 109.32C15.8466 104.76 15.4686 102.574 13.7808 101.4C12.4711 100.483 10.3513 100.186 6.80031 99.8622C10.4998 99.5249 12.6467 99.2146 13.9428 98.2027C15.4956 96.9884 15.8601 94.8026 16.2652 90.3906C16.6432 94.4518 16.9808 96.6241 18.2365 97.8789C19.4921 99.1337 21.6795 99.4845 25.7301 99.8488Z" fill="black"/>
<path d="M150.682 73.9743C150.682 84.743 141.673 93.5387 130.477 93.5387C119.28 93.5387 110.271 84.743 110.271 73.9743C110.271 63.2055 119.28 54.4099 130.477 54.4099C141.673 54.4099 150.682 63.2055 150.682 73.9743Z" stroke="black" stroke-width="2.56583"/>
<path d="M130.797 73.9743C130.797 84.761 121.913 93.5387 110.912 93.5387C99.9114 93.5387 91.027 84.761 91.027 73.9743C91.027 63.1876 99.9114 54.4099 110.912 54.4099C121.913 54.4099 130.797 63.1876 130.797 73.9743Z" fill="#3BB3BD" stroke="black" stroke-width="2.56583"/>
<path d="M109.629 73.9743C109.629 84.743 100.62 93.5387 89.4234 93.5387C78.227 93.5387 69.2175 84.743 69.2175 73.9743C69.2175 63.2055 78.227 54.4099 89.4234 54.4099C100.62 54.4099 109.629 63.2055 109.629 73.9743Z" stroke="black" stroke-width="2.56583"/>
</svg>
