<svg width="299" height="198" viewBox="0 0 299 198" fill="none" xmlns="http://www.w3.org/2000/svg">
<path d="M206.116 138.371C239.859 147.14 274.321 126.895 283.09 93.1517C291.859 59.408 271.614 24.9469 237.87 16.1779C204.126 7.40898 169.665 27.6537 160.896 61.3974C152.127 95.1411 172.372 129.602 206.116 138.371Z" stroke="black" stroke-width="2.98891" stroke-linecap="round" stroke-linejoin="round"/>
<path d="M217.955 17.5251C196.766 50.1191 186.737 88.7131 189.376 127.499M254.613 27.0514C257.252 65.8374 247.222 104.431 226.034 137.025" stroke="black" stroke-width="2.98891" stroke-linecap="round" stroke-linejoin="round"/>
<path d="M162.244 81.3139C194.838 102.502 233.432 112.532 272.218 109.893M171.77 44.6559C210.556 42.017 249.15 52.0464 281.744 73.2348" stroke="black" stroke-width="2.98891" stroke-linecap="round" stroke-linejoin="round"/>
<path d="M50.8228 105.43C35.5408 109.883 28.8256 122.451 33.358 138.007C37.8904 153.562 50.2958 160.522 65.5778 156.07C80.8598 151.617 87.5849 139.082 83.0525 123.527C78.5202 107.972 66.1048 100.977 50.8228 105.43Z" fill="#9D7EE6"/>
<path fill-rule="evenodd" clip-rule="evenodd" d="M26.7722 119.91C33.9219 113.289 42.6356 106.985 51.0424 104.536C59.5143 102.067 69.4682 102.978 78.2615 104.989C87.1454 107.021 95.3934 110.304 100.717 113.113L103.343 114.498L101.962 117.113C101.683 117.641 101.378 118.226 101.048 118.86C98.6404 123.481 94.8682 130.722 89.7926 137.586C84.082 145.309 76.2461 153.23 66.0925 156.188C56.0186 159.124 44.3724 156.951 34.6117 153.778C24.6993 150.556 15.9794 146.048 11.4317 143.514L8.80027 142.048L10.3192 139.433C13.4375 134.065 19.5606 126.59 26.7722 119.91Z" stroke="black" stroke-width="2.98891"/>
<circle cx="58.6149" cy="130.349" r="10.9593" transform="rotate(-16.2447 58.6149 130.349)" fill="black"/>
<path d="M87.585 31.9471V31.5664C97.4258 31.5664 105.403 39.544 105.403 49.3849C95.6876 49.3849 87.7876 41.6122 87.585 31.9471Z" fill="#B730E1"/>
<path d="M87.9657 62.4512L87.585 62.4512C87.585 52.6103 95.5626 44.6327 105.403 44.6327C105.403 54.3485 97.6308 62.2485 87.9657 62.4512Z" fill="#B730E1"/>
<path d="M118.471 62.0705L118.471 62.4512C108.63 62.4512 100.652 54.4736 100.652 44.6327C110.368 44.6327 118.268 52.4054 118.471 62.0705Z" fill="#B730E1"/>
<path d="M118.09 31.5664L118.471 31.5664C118.471 41.4073 110.493 49.3849 100.652 49.3849C100.652 39.6691 108.425 31.769 118.09 31.5664Z" fill="#B730E1"/>
<g clip-path="url(#clip0_305_3649)">
<path d="M147.468 173.886C147.854 172.71 148.537 171.009 148.024 169.78C147.44 168.384 145.574 167.385 144.251 166.812C141.194 165.492 137.747 168.071 136.399 170.742C135.787 172.089 135.337 173.404 136.042 174.813C136.665 176.051 138.674 178.377 140.081 178.735C141.298 179.047 143.578 178.087 144.672 177.625C146.35 176.916 146.907 175.552 147.465 173.878L147.468 173.886ZM142.271 167.825C142.044 168.518 141.818 169.21 141.579 169.896C141.339 170.603 140.954 171.258 140.698 171.951C140.323 172.032 139.951 172.227 139.539 172.418C138.76 172.765 137.971 173.086 137.204 173.466C137.125 172.781 137.226 172.039 137.562 171.277C138.407 169.594 140.3 168.005 142.279 167.822L142.271 167.825ZM142.232 177.06C140.255 177.405 138.339 176.348 137.542 174.693C138.523 174.185 140.512 172.908 141.488 173.406C142.65 173.989 143.503 175.276 144.582 176.026C143.968 176.533 143.195 176.897 142.224 177.063L142.232 177.06ZM145.442 175.09C145.442 175.09 145.436 175.073 145.424 175.067C144.206 174.254 143.259 172.895 141.958 172.199C142.203 171.606 142.525 171.043 142.734 170.434C143.02 169.614 143.27 168.778 143.564 167.955C143.564 167.955 143.558 167.938 143.563 167.926C143.618 167.945 143.679 167.951 143.73 167.961C144.515 168.202 146.316 169.234 146.735 170.054C147.121 170.809 146.715 171.983 146.516 172.723C146.262 173.628 145.927 174.418 145.459 175.083L145.442 175.09Z" fill="black"/>
<path d="M156.124 176.823C153.495 176.58 149.517 177.831 148.726 180.701C148.334 182.121 148.21 184.551 148.97 185.873C149.714 187.18 151.502 187.523 152.865 187.868C154.546 188.288 156.065 188.557 157.528 187.503C158.519 186.789 160.512 185.443 160.916 184.212C161.385 182.793 160.466 179.841 159.704 178.617C158.897 177.323 157.563 177.006 156.124 176.823ZM155.902 178.074C156.641 178.167 157.325 178.503 157.9 178.985C157.243 179.402 156.607 179.85 155.96 180.292C155.551 180.569 155.14 180.789 154.832 181.106C154.111 180.957 153.368 180.933 152.641 180.768C151.914 180.603 151.189 180.417 150.458 180.243C151.681 178.671 154.106 177.918 155.896 178.086L155.902 178.074ZM150.046 185.233C149.544 184.424 149.576 182.346 149.853 181.375C149.874 181.377 149.88 181.394 149.9 181.396C150.743 181.586 151.581 181.817 152.424 182.007C153.067 182.155 153.728 182.19 154.367 182.301C154.292 183.768 154.926 185.271 154.965 186.733C154.971 186.75 154.978 186.767 154.984 186.784C154.361 186.822 153.717 186.78 153.079 186.62C152.291 186.42 150.564 186.084 150.046 185.233ZM158.926 184.601C158.211 185.59 157.272 186.237 156.226 186.566C156.173 185.224 155.555 183.841 155.646 182.523C155.697 181.799 156.368 181.551 156.923 181.172C157.531 180.754 158.136 180.327 158.765 179.94C159.715 181.307 159.984 183.157 158.932 184.618L158.926 184.601Z" fill="black"/>
<path d="M151.158 167.657C152.327 167.398 153.048 166.214 152.849 165.052C152.649 163.832 151.727 163.324 150.569 163.299C150.442 163.297 150.341 163.335 150.262 163.383C149.124 163.727 148.144 164.679 148.327 165.953C148.499 167.202 150.001 167.921 151.158 167.657Z" fill="black"/>
<path d="M156.189 168.572C156.063 168.57 155.961 168.608 155.882 168.657C154.745 169 153.764 169.952 153.947 171.227C154.119 172.476 155.621 173.194 156.778 172.93C157.947 172.671 158.668 171.487 158.469 170.325C158.269 169.106 157.347 168.597 156.189 168.572Z" fill="black"/>
<path d="M144.036 182.9C143.91 182.899 143.808 182.936 143.73 182.985C142.592 183.329 141.612 184.28 141.794 185.555C141.967 186.804 143.469 187.522 144.626 187.258C145.795 186.999 146.515 185.816 146.317 184.653C146.116 183.434 145.195 182.925 144.036 182.9Z" fill="black"/>
<path d="M155.131 145.029C155.422 145.163 155.859 145.04 155.972 144.718C156.369 143.625 156.782 142.526 157.092 141.407C157.172 141.126 156.962 140.847 156.732 140.72C153.977 139.171 145.239 133.118 145.018 140.19C144.942 142.593 145.472 145.148 145.708 147.532C145.815 148.603 145.921 149.674 146.031 150.753C138.977 153.345 131.863 155.775 124.816 158.384C124.714 158.421 124.638 158.478 124.574 158.541C124.396 158.684 124.309 158.919 124.441 159.198C128.549 167.767 132.849 176.255 137.524 184.527C138.749 186.69 139.991 188.846 141.273 190.978C141.949 192.099 142.684 194.164 143.899 194.786C144.828 195.262 145.921 194.694 146.808 194.404C149.189 193.61 151.566 192.807 153.923 191.925C156.004 191.155 158.06 190.345 160.134 189.558C161.303 189.116 163.331 188.674 164.207 187.703C166.079 185.639 164.111 181.183 163.642 178.847C161.535 168.33 159.438 157.811 157.331 147.295C157.255 146.908 156.895 146.587 156.483 146.749C154.546 147.543 152.586 148.298 150.634 149.05C150.416 146.948 150.255 144.845 150.152 142.74C151.824 143.502 153.488 144.266 155.146 145.043L155.131 145.029ZM147.183 160.541C145.554 160.941 143.891 161.248 142.217 161.549C137.432 162.394 133.397 163.752 129.477 166.622C128.272 164.201 127.075 161.776 125.904 159.342C132.644 156.867 139.429 154.539 146.169 152.063C146.465 154.899 146.79 157.733 147.186 160.55L147.183 160.541ZM161.151 172.875L162.364 178.943C162.741 180.821 163.595 183.102 163.577 185.011C163.546 187.378 161.527 187.662 159.674 188.367C157.778 189.088 155.888 189.826 153.99 190.539C152.201 191.211 150.406 191.865 148.607 192.483C147.766 192.765 146.691 193.356 145.79 193.4C143.945 193.504 143.917 192.906 143.178 191.692C141.086 188.257 139.076 184.782 137.136 181.262C134.678 176.813 132.336 172.312 130.056 167.769C135.3 163.887 140.795 163.369 146.95 161.999C150.983 161.105 154.827 159.44 157.917 156.703C158.996 162.097 160.075 167.49 161.155 172.884L161.151 172.875ZM156.218 148.199C156.685 150.556 157.16 152.909 157.627 155.266C155.875 156.977 153.903 158.17 151.798 159.055C151.448 156.153 151.069 153.252 150.753 150.338C152.581 149.642 154.402 148.929 156.218 148.199Z" fill="black"/>
</g>
<g clip-path="url(#clip1_305_3649)">
<path d="M148.468 173.886C148.854 172.71 149.537 171.009 149.024 169.78C148.44 168.384 146.574 167.385 145.251 166.812C142.194 165.492 138.747 168.071 137.399 170.742C136.787 172.089 136.337 173.404 137.042 174.813C137.665 176.051 139.674 178.377 141.081 178.735C142.298 179.047 144.578 178.087 145.672 177.625C147.35 176.916 147.907 175.552 148.465 173.878L148.468 173.886ZM143.271 167.825C143.044 168.518 142.818 169.21 142.579 169.896C142.339 170.603 141.954 171.258 141.698 171.951C141.323 172.032 140.951 172.227 140.539 172.418C139.76 172.765 138.971 173.086 138.204 173.466C138.125 172.781 138.226 172.039 138.562 171.277C139.407 169.594 141.3 168.005 143.279 167.822L143.271 167.825ZM143.232 177.06C141.255 177.405 139.339 176.348 138.542 174.693C139.523 174.185 141.512 172.908 142.488 173.406C143.65 173.989 144.503 175.276 145.582 176.026C144.968 176.533 144.195 176.897 143.224 177.063L143.232 177.06ZM146.442 175.09C146.442 175.09 146.436 175.073 146.424 175.067C145.206 174.254 144.259 172.895 142.958 172.199C143.203 171.606 143.525 171.043 143.734 170.434C144.02 169.614 144.27 168.778 144.564 167.955C144.564 167.955 144.558 167.938 144.563 167.926C144.618 167.945 144.679 167.951 144.73 167.961C145.515 168.202 147.316 169.234 147.735 170.054C148.121 170.809 147.715 171.983 147.516 172.723C147.262 173.628 146.927 174.418 146.459 175.083L146.442 175.09Z" fill="black"/>
<path d="M157.124 176.823C154.495 176.58 150.517 177.831 149.726 180.701C149.334 182.121 149.21 184.551 149.97 185.873C150.714 187.18 152.502 187.523 153.865 187.868C155.546 188.288 157.065 188.557 158.528 187.503C159.519 186.789 161.512 185.443 161.916 184.212C162.385 182.793 161.466 179.841 160.704 178.617C159.897 177.323 158.563 177.006 157.124 176.823ZM156.902 178.074C157.641 178.167 158.325 178.503 158.9 178.985C158.243 179.402 157.607 179.85 156.96 180.292C156.551 180.569 156.14 180.789 155.832 181.106C155.111 180.957 154.368 180.933 153.641 180.768C152.914 180.603 152.189 180.417 151.458 180.243C152.681 178.671 155.106 177.918 156.896 178.086L156.902 178.074ZM151.046 185.233C150.544 184.424 150.576 182.346 150.853 181.375C150.874 181.377 150.88 181.394 150.9 181.396C151.743 181.586 152.581 181.817 153.424 182.007C154.067 182.155 154.728 182.19 155.367 182.301C155.292 183.768 155.926 185.271 155.965 186.733C155.971 186.75 155.978 186.767 155.984 186.784C155.361 186.822 154.717 186.78 154.079 186.62C153.291 186.42 151.564 186.084 151.046 185.233ZM159.926 184.601C159.211 185.59 158.272 186.237 157.226 186.566C157.173 185.224 156.555 183.841 156.646 182.523C156.697 181.799 157.368 181.551 157.923 181.172C158.531 180.754 159.136 180.327 159.765 179.94C160.715 181.307 160.984 183.157 159.932 184.618L159.926 184.601Z" fill="black"/>
<path d="M152.158 167.657C153.327 167.398 154.048 166.214 153.849 165.052C153.649 163.832 152.727 163.324 151.569 163.299C151.442 163.297 151.341 163.335 151.262 163.383C150.124 163.727 149.144 164.679 149.327 165.953C149.499 167.202 151.001 167.921 152.158 167.657Z" fill="black"/>
<path d="M157.189 168.572C157.063 168.57 156.961 168.608 156.882 168.657C155.745 169 154.764 169.952 154.947 171.227C155.119 172.476 156.621 173.194 157.778 172.93C158.947 172.671 159.668 171.487 159.469 170.325C159.269 169.106 158.347 168.597 157.189 168.572Z" fill="black"/>
<path d="M145.036 182.9C144.91 182.899 144.808 182.936 144.73 182.985C143.592 183.329 142.612 184.28 142.794 185.555C142.967 186.804 144.469 187.522 145.626 187.258C146.795 186.999 147.515 185.816 147.317 184.653C147.116 183.434 146.195 182.925 145.036 182.9Z" fill="black"/>
<path d="M156.131 145.029C156.422 145.163 156.859 145.04 156.972 144.718C157.369 143.625 157.782 142.526 158.092 141.407C158.172 141.126 157.962 140.847 157.732 140.72C154.977 139.171 146.239 133.118 146.018 140.19C145.942 142.593 146.472 145.148 146.708 147.532C146.815 148.603 146.921 149.674 147.031 150.753C139.977 153.345 132.863 155.775 125.816 158.384C125.714 158.421 125.638 158.478 125.574 158.541C125.396 158.684 125.309 158.919 125.441 159.198C129.549 167.767 133.849 176.255 138.524 184.527C139.749 186.69 140.991 188.846 142.273 190.978C142.949 192.099 143.684 194.164 144.899 194.786C145.828 195.262 146.921 194.694 147.808 194.404C150.189 193.61 152.566 192.807 154.923 191.925C157.004 191.155 159.06 190.345 161.134 189.558C162.303 189.116 164.331 188.674 165.207 187.703C167.079 185.639 165.111 181.183 164.642 178.847C162.535 168.33 160.438 157.811 158.331 147.295C158.255 146.908 157.895 146.587 157.483 146.749C155.546 147.543 153.586 148.298 151.634 149.05C151.416 146.948 151.255 144.845 151.152 142.74C152.824 143.502 154.488 144.266 156.146 145.043L156.131 145.029ZM148.183 160.541C146.554 160.941 144.891 161.248 143.217 161.549C138.432 162.394 134.397 163.752 130.477 166.622C129.272 164.201 128.075 161.776 126.904 159.342C133.644 156.867 140.429 154.539 147.169 152.063C147.465 154.899 147.79 157.733 148.186 160.55L148.183 160.541ZM162.151 172.875L163.364 178.943C163.741 180.821 164.595 183.102 164.577 185.011C164.546 187.378 162.527 187.662 160.674 188.367C158.778 189.088 156.888 189.826 154.99 190.539C153.201 191.211 151.406 191.865 149.607 192.483C148.766 192.765 147.691 193.356 146.79 193.4C144.945 193.504 144.917 192.906 144.178 191.692C142.086 188.257 140.076 184.782 138.136 181.262C135.678 176.813 133.336 172.312 131.056 167.769C136.3 163.887 141.795 163.369 147.95 161.999C151.983 161.105 155.827 159.44 158.917 156.703C159.996 162.097 161.075 167.49 162.155 172.884L162.151 172.875ZM157.218 148.199C157.685 150.556 158.16 152.909 158.627 155.266C156.875 156.977 154.903 158.17 152.798 159.055C152.448 156.153 152.069 153.252 151.753 150.338C153.581 149.642 155.402 148.929 157.218 148.199Z" fill="black"/>
</g>
<defs>
<clipPath id="clip0_305_3649">
<rect width="36.8964" height="54" fill="white" transform="translate(119.892 146.934) rotate(-20.3114)"/>
</clipPath>
<clipPath id="clip1_305_3649">
<rect width="36.8964" height="54" fill="white" transform="translate(120.892 146.934) rotate(-20.3114)"/>
</clipPath>
</defs>
</svg>
