<svg width="285" height="606" viewBox="0 0 285 606" fill="none" xmlns="http://www.w3.org/2000/svg">
<path d="M101.044 217.031C96.1587 217.475 93.3517 217.883 91.6284 219.232C89.6031 220.812 89.1235 223.706 88.5905 229.493C88.0398 223.493 87.5423 220.617 85.3216 219.072C83.5983 217.865 80.8091 217.475 76.1367 217.049C81.0045 216.605 83.8293 216.196 85.5348 214.865C87.5779 213.267 88.0575 210.391 88.5905 204.586C89.0879 209.93 89.5321 212.788 91.1843 214.439C92.8365 216.09 95.7146 216.552 101.044 217.031Z" fill="black"/>
<path d="M284.365 39.689C279.479 40.1329 276.672 40.5412 274.949 41.8904C272.923 43.4704 272.444 46.3642 271.911 52.1517C271.36 46.1512 270.863 43.2752 268.642 41.7306C266.919 40.5234 264.129 40.1329 259.457 39.7068C264.325 39.263 267.15 38.8547 268.855 37.5232C270.898 35.9254 271.378 33.0494 271.911 27.2441C272.408 32.5878 272.852 35.4461 274.505 37.0971C276.157 38.7481 279.035 39.2097 284.365 39.689Z" fill="black"/>
<path d="M18.3514 9.30408C14.8338 9.62364 12.8128 9.91763 11.572 10.8891C10.1138 12.0267 9.76843 14.1102 9.38469 18.2772C8.98816 13.9568 8.63 11.8861 7.03109 10.774C5.79033 9.90484 3.78209 9.62364 0.417969 9.31686C3.92279 8.99731 5.95661 8.70332 7.18458 7.74465C8.65559 6.59425 9.00095 4.52353 9.38469 0.34375C9.74285 4.1912 10.0626 6.24913 11.2522 7.43788C12.4418 8.62662 14.514 8.95896 18.3514 9.30408Z" fill="black"/>
<path d="M272.41 447.669C263.811 448.45 258.871 449.168 255.838 451.543C252.273 454.324 251.429 459.417 250.491 469.603C249.522 459.042 248.646 453.98 244.738 451.262C241.705 449.137 236.796 448.45 228.572 447.7C237.14 446.919 242.111 446.2 245.113 443.857C248.709 441.045 249.553 435.983 250.491 425.766C251.366 435.17 252.148 440.201 255.056 443.107C257.964 446.013 263.029 446.825 272.41 447.669Z" fill="black"/>
<path d="M76.1374 526.374C66.3662 527.262 60.7523 528.078 57.3057 530.777C53.2551 533.937 52.2958 539.724 51.2298 551.299C50.1284 539.298 49.1335 533.546 44.692 530.457C41.2455 528.043 35.667 527.262 26.3223 526.41C36.0579 525.522 41.7074 524.705 45.1184 522.042C49.2045 518.847 50.1639 513.095 51.2298 501.484C52.2247 512.172 53.113 517.888 56.4174 521.19C59.7218 524.492 65.4779 525.416 76.1374 526.374Z" fill="black"/>
<path d="M201.672 522.234L240.699 561.261L201.672 600.288L201.672 522.234Z" fill="#3BB3BD" stroke="black" stroke-width="3.98521"/>
<path d="M223.591 522.234L262.618 561.261L223.591 600.288L223.591 522.234Z" stroke="black" stroke-width="3.98521"/>
<circle cx="137.906" cy="94.8926" r="18.9962" transform="rotate(90 137.906 94.8926)" fill="#FF9534"/>
<path d="M94.0695 94.8926C94.0695 119.103 113.696 138.73 137.907 138.73C162.118 138.73 181.744 119.103 181.744 94.8926L164.94 94.8926C164.94 109.822 152.837 121.926 137.907 121.926C122.977 121.926 110.874 109.822 110.874 94.8926L94.0695 94.8926Z" fill="#7815CD"/>
</svg>
