<svg width="317" height="191" viewBox="0 0 317 191" fill="none" xmlns="http://www.w3.org/2000/svg">
<path d="M29.771 127.207H3.86719L29.771 152.115V127.207Z" fill="#9D7EE6" stroke="black" stroke-width="2.98891"/>
<path d="M177.224 23.5769C168.625 24.358 163.685 25.0766 160.652 27.4513C157.088 30.2321 156.243 35.3251 155.305 45.5111C154.336 34.9502 153.461 29.8884 149.552 27.1701C146.519 25.0454 141.61 24.358 133.387 23.6081C141.954 22.827 146.926 22.1083 149.927 19.7649C153.523 16.9528 154.367 11.8911 155.305 1.67383C156.181 11.0787 156.963 16.1092 159.87 19.015C162.778 21.9209 167.844 22.7332 177.224 23.5769Z" fill="#DAB186"/>
<path d="M245.92 0.568764C237.422 19.9667 246.258 42.5809 265.655 51.0792C285.053 59.5775 307.668 50.7418 316.166 31.3439L297.593 23.2072C293.589 32.3477 282.933 36.5113 273.792 32.5068C264.652 28.5023 260.488 17.8461 264.493 8.70554L245.92 0.568764Z" fill="#7815CD"/>
<path d="M222.069 55.0098C230.567 35.6119 253.181 26.7762 272.579 35.2745C291.977 43.7729 300.813 66.3871 292.315 85.785L273.742 77.6482C277.747 68.5076 273.583 57.8515 264.443 53.8469C255.302 49.8424 244.646 54.006 240.641 63.1466L222.069 55.0098Z" fill="#3BB3BD"/>
<path fill-rule="evenodd" clip-rule="evenodd" d="M247.008 35.2942C238.088 38.234 230.218 44.6529 225.513 53.7276L239.462 59.8388C243.719 52.5597 251.746 48.4998 259.768 49.3513C254.283 45.7854 249.958 40.9085 247.008 35.2942ZM245.885 32.9734C236.422 36.1875 228.114 43.0649 223.167 52.6997C222.78 53.4531 222.414 54.2232 222.069 55.0098L224.411 56.0357L238.3 62.1208L240.642 63.1466C244.785 53.6908 255.553 49.2717 264.693 53.2763C273.834 57.2808 277.885 68.1925 273.743 77.6482L276.084 78.6741L289.974 84.7592L292.315 85.785C292.66 84.9984 292.978 84.2071 293.269 83.412C296.998 73.2439 296.421 62.4741 292.369 53.339C301.832 50.1249 310.14 43.2475 315.087 33.6126C315.474 32.8593 315.84 32.0892 316.185 31.3026L313.843 30.2767L299.954 24.1916L297.612 23.1658C293.469 32.6216 282.701 37.0406 273.561 33.0361C264.42 29.0316 260.369 18.1199 264.512 8.66416L262.17 7.63832L248.28 1.55323L245.939 0.527386C245.594 1.31398 245.276 2.10533 244.985 2.90035C241.256 13.0684 241.833 23.8383 245.885 32.9734ZM249.519 34.5657C253.138 41.2096 258.833 46.6932 266.169 49.9074C273.506 53.1216 281.398 53.5907 288.735 51.7467C285.116 45.1028 279.421 39.6192 272.085 36.4049C264.748 33.1908 256.856 32.7217 249.519 34.5657ZM291.246 51.0181C300.166 48.0784 308.036 41.6595 312.741 32.5848L298.792 26.4736C294.535 33.7527 286.508 37.8126 278.486 36.9611C283.971 40.527 288.296 45.4038 291.246 51.0181ZM267.336 32.0763C260.996 30.4613 254.48 30.5884 248.352 32.2255C244.466 23.6755 243.849 13.5386 247.331 3.9282L261.28 10.0394C258.815 18.1034 261.272 26.7563 267.336 32.0763ZM289.902 54.0869C293.788 62.6369 294.405 72.7738 290.923 82.3842L276.974 76.273C279.439 68.209 276.982 59.5561 270.918 54.2361C277.258 55.8511 283.774 55.7239 289.902 54.0869Z" fill="black"/>
<g clip-path="url(#clip0_305_3233)">
<path d="M26.3225 37.5725C26.1415 37.8093 26.2044 38.0443 26.365 38.1964C26.4718 38.3929 26.6821 38.5163 26.9553 38.4049C28.4219 37.8162 30.0186 36.7422 30.3104 35.0583C30.5964 33.3646 27.2478 28.6077 30.5409 28.2483C31.1456 28.1837 31.3471 27.3064 30.6817 27.1281C28.6071 26.5722 26.2869 26.7141 25.5261 29.0525C24.5085 32.1612 28.6608 34.4821 26.3246 37.5647L26.3225 37.5725Z" fill="black"/>
<path d="M33.408 39.1866C33.2271 39.4234 33.29 39.6584 33.4506 39.8105C33.5574 40.007 33.7676 40.1304 34.0408 40.019C35.7806 39.3189 37.6814 38.0495 38.018 36.042C38.3703 33.9129 34.1458 28.1662 38.4158 27.6994C39.0283 27.6369 39.2199 26.7653 38.5623 26.5891C36.0942 25.9362 33.3866 26.0833 32.4556 28.8376C31.1851 32.6086 36.2813 35.3837 33.408 39.1866Z" fill="black"/>
<path d="M48.6974 49.7921C47.6761 48.562 46.3512 48.0895 44.9642 48.3807C45.3906 46.7581 45.1897 45.3786 43.8494 44.6502C43.8259 44.6439 43.8024 44.6377 43.7789 44.6314C43.7554 44.6251 43.7361 44.6031 43.7127 44.5968C34.9227 41.9227 25.8339 39.0175 16.7743 37.4123C13.7225 36.8714 13.5255 38.7652 13.0273 41.5013C12.4992 44.3804 12.2977 47.3554 12.8075 50.2441C13.1305 52.0759 13.7514 53.7357 14.6308 55.2132C11.9605 54.7829 7.0785 54.4649 6.4552 57.0416C5.98196 58.9956 9.26748 60.606 10.6043 61.1907C11.1371 61.4258 11.6818 61.6472 12.2308 61.8531C12.8415 65.868 18.9538 66.7925 22.0961 67.6849C24.8803 68.4729 27.9411 69.4188 30.8441 69.5758C32.6216 69.6745 33.7327 68.722 35.0715 67.6712C37.2246 67.9964 40.6671 68.4573 41.9181 67.0137C43.8007 64.8416 37.5455 62.0076 34.8248 60.9514C35.1581 60.7722 35.4877 60.5752 35.8116 60.3684C35.8701 60.4008 35.9207 60.4311 35.999 60.4521C40.3842 61.4341 47.1871 60.2196 49.0106 55.4809C49.6951 53.7093 49.961 51.3389 48.6875 49.7978L48.6974 49.7921ZM43.0489 52.6165C43.5 52.5612 44.2091 52.4827 44.6134 52.7588C45.1439 53.1275 45.1994 53.7969 44.9466 54.3332C44.6002 55.0627 43.7078 55.6375 42.9797 55.9122C42.1863 56.2115 41.0573 56.4795 40.1223 56.4304C41.0232 55.3544 42.0543 54.0113 42.9508 52.607C42.9821 52.6154 43.0134 52.6238 43.0489 52.6165ZM33.5307 61.6786C35.3317 62.2535 37.0316 63.1117 38.6226 64.1254C39.1459 64.4585 40.4524 65.0939 40.6908 65.6444C41.2208 66.8604 37.8928 66.7239 37.1875 66.6943C32.2386 66.5009 27.2717 65.1533 22.533 63.7997C20.2967 63.1585 18.0589 62.4917 15.8352 61.8036C13.6663 61.1302 10.033 60.4419 8.47374 58.5893C6.37071 56.1044 10.4668 56.1615 11.9823 56.1732C13.136 56.1887 14.3163 56.2616 15.4463 56.5225C15.4698 56.5288 15.4875 56.5251 15.5053 56.5215C17.2958 58.8891 19.8157 60.6635 22.8288 61.7561C26.5083 63.086 30.1352 62.9839 33.4217 61.6158C33.4587 61.6342 33.4916 61.6681 33.5386 61.6807L33.5307 61.6786ZM34.0917 60.1173C28.0919 63.3761 19.6963 60.9839 15.95 55.3317C14.2954 52.8327 13.6673 49.8536 13.6463 46.8945C13.6358 45.18 13.8159 43.4746 14.1154 41.7929C14.2153 41.2323 14.3117 40.0583 14.5953 39.5637C15.5877 37.8327 17.3638 38.7197 18.6952 39.0429C26.9539 41.0377 35.1765 43.199 43.3094 45.6634C45.4197 46.9001 41.503 52.6554 40.6845 53.8625C38.9812 56.3679 36.78 58.6644 34.0975 60.1272L34.0917 60.1173ZM45.0962 58.0651C42.6721 59.4713 39.7804 59.9299 37.0375 59.4886C37.4717 59.1518 37.9044 58.7895 38.3199 58.3974C38.5577 58.1675 38.8797 57.8426 39.2383 57.4437C39.254 57.4479 39.2618 57.45 39.2696 57.4521C41.2748 57.9222 44.1519 57.0486 45.4913 55.4945C46.125 54.7581 46.4332 53.7331 46.0558 52.7929C45.6425 51.7676 44.6395 51.4401 43.6329 51.4389C43.9652 50.8567 44.2582 50.264 44.4938 49.6978C47.0581 48.4886 48.6768 51.2466 48.3307 53.478C47.9955 55.6368 46.9289 56.9872 45.0905 58.0552L45.0962 58.0651Z" fill="black"/>
</g>
<g clip-path="url(#clip1_305_3233)">
<path d="M27.3225 37.5725C27.1415 37.8093 27.2044 38.0443 27.365 38.1964C27.4718 38.3929 27.6821 38.5163 27.9553 38.4049C29.4219 37.8162 31.0186 36.7422 31.3104 35.0583C31.5964 33.3646 28.2478 28.6077 31.5409 28.2483C32.1456 28.1837 32.3471 27.3064 31.6817 27.1281C29.6071 26.5722 27.2869 26.7141 26.5261 29.0525C25.5085 32.1612 29.6608 34.4821 27.3246 37.5647L27.3225 37.5725Z" fill="black"/>
<path d="M34.408 39.1866C34.2271 39.4234 34.29 39.6584 34.4506 39.8105C34.5574 40.007 34.7676 40.1304 35.0408 40.019C36.7806 39.3189 38.6814 38.0495 39.018 36.042C39.3703 33.9129 35.1458 28.1662 39.4158 27.6994C40.0283 27.6369 40.2199 26.7653 39.5623 26.5891C37.0942 25.9362 34.3866 26.0833 33.4556 28.8376C32.1851 32.6086 37.2813 35.3837 34.408 39.1866Z" fill="black"/>
<path d="M49.6974 49.7921C48.6761 48.562 47.3512 48.0895 45.9642 48.3807C46.3906 46.7581 46.1897 45.3786 44.8494 44.6502C44.8259 44.6439 44.8024 44.6377 44.7789 44.6314C44.7554 44.6251 44.7361 44.6031 44.7127 44.5968C35.9227 41.9227 26.8339 39.0175 17.7743 37.4123C14.7225 36.8714 14.5255 38.7652 14.0273 41.5013C13.4992 44.3804 13.2977 47.3554 13.8075 50.2441C14.1305 52.0759 14.7514 53.7357 15.6308 55.2132C12.9605 54.7829 8.0785 54.4649 7.4552 57.0416C6.98196 58.9956 10.2675 60.606 11.6043 61.1907C12.1371 61.4258 12.6818 61.6472 13.2308 61.8531C13.8415 65.868 19.9538 66.7925 23.0961 67.6849C25.8803 68.4729 28.9411 69.4188 31.8441 69.5758C33.6216 69.6745 34.7327 68.722 36.0715 67.6712C38.2246 67.9964 41.6671 68.4573 42.9181 67.0137C44.8007 64.8416 38.5455 62.0076 35.8248 60.9514C36.1581 60.7722 36.4877 60.5752 36.8116 60.3684C36.8701 60.4008 36.9207 60.4311 36.999 60.4521C41.3842 61.4341 48.1871 60.2196 50.0106 55.4809C50.6951 53.7093 50.961 51.3389 49.6875 49.7978L49.6974 49.7921ZM44.0489 52.6165C44.5 52.5612 45.2091 52.4827 45.6134 52.7588C46.1439 53.1275 46.1994 53.7969 45.9466 54.3332C45.6002 55.0627 44.7078 55.6375 43.9797 55.9122C43.1863 56.2115 42.0573 56.4795 41.1223 56.4304C42.0232 55.3544 43.0543 54.0113 43.9508 52.607C43.9821 52.6154 44.0134 52.6238 44.0489 52.6165ZM34.5307 61.6786C36.3317 62.2535 38.0316 63.1117 39.6226 64.1254C40.1459 64.4585 41.4524 65.0939 41.6908 65.6444C42.2208 66.8604 38.8928 66.7239 38.1875 66.6943C33.2386 66.5009 28.2717 65.1533 23.533 63.7997C21.2967 63.1585 19.0589 62.4917 16.8352 61.8036C14.6663 61.1302 11.033 60.4419 9.47374 58.5893C7.37071 56.1044 11.4668 56.1615 12.9823 56.1732C14.136 56.1887 15.3163 56.2616 16.4463 56.5225C16.4698 56.5288 16.4875 56.5251 16.5053 56.5215C18.2958 58.8891 20.8157 60.6635 23.8288 61.7561C27.5083 63.086 31.1352 62.9839 34.4217 61.6158C34.4587 61.6342 34.4916 61.6681 34.5386 61.6807L34.5307 61.6786ZM35.0917 60.1173C29.0919 63.3761 20.6963 60.9839 16.95 55.3317C15.2954 52.8327 14.6673 49.8536 14.6463 46.8945C14.6358 45.18 14.8159 43.4746 15.1154 41.7929C15.2153 41.2323 15.3117 40.0583 15.5953 39.5637C16.5877 37.8327 18.3638 38.7197 19.6952 39.0429C27.9539 41.0377 36.1765 43.199 44.3094 45.6634C46.4197 46.9001 42.503 52.6554 41.6845 53.8625C39.9812 56.3679 37.78 58.6644 35.0975 60.1272L35.0917 60.1173ZM46.0962 58.0651C43.6721 59.4713 40.7804 59.9299 38.0375 59.4886C38.4717 59.1518 38.9044 58.7895 39.3199 58.3974C39.5577 58.1675 39.8797 57.8426 40.2383 57.4437C40.254 57.4479 40.2618 57.45 40.2696 57.4521C42.2748 57.9222 45.1519 57.0486 46.4913 55.4945C47.125 54.7581 47.4332 53.7331 47.0558 52.7929C46.6425 51.7676 45.6395 51.4401 44.6329 51.4389C44.9652 50.8567 45.2582 50.264 45.4938 49.6978C48.0581 48.4886 49.6768 51.2466 49.3307 53.478C48.9955 55.6368 47.9289 56.9872 46.0905 58.0552L46.0962 58.0651Z" fill="black"/>
</g>
<g clip-path="url(#clip2_305_3233)">
<path d="M265.409 166.886C265.794 165.71 266.478 164.009 265.965 162.78C265.38 161.384 263.514 160.385 262.192 159.812C259.135 158.492 255.687 161.071 254.339 163.742C253.727 165.089 253.278 166.404 253.983 167.813C254.605 169.051 256.615 171.377 258.022 171.735C259.238 172.047 261.518 171.087 262.612 170.625C264.29 169.916 264.847 168.552 265.406 166.878L265.409 166.886ZM260.211 160.825C259.985 161.518 259.758 162.21 259.52 162.896C259.279 163.603 258.894 164.258 258.639 164.951C258.263 165.032 257.892 165.227 257.48 165.418C256.7 165.765 255.912 166.086 255.145 166.466C255.065 165.781 255.167 165.039 255.503 164.277C256.347 162.594 258.24 161.005 260.22 160.822L260.211 160.825ZM260.173 170.06C258.196 170.405 256.279 169.348 255.483 167.693C256.463 167.185 258.452 165.908 259.428 166.406C260.591 166.989 261.444 168.276 262.522 169.026C261.909 169.533 261.136 169.897 260.164 170.063L260.173 170.06ZM263.383 168.09C263.383 168.09 263.376 168.073 263.365 168.067C262.146 167.254 261.199 165.895 259.899 165.199C260.143 164.606 260.465 164.043 260.675 163.434C260.96 162.614 261.211 161.778 261.504 160.955C261.504 160.955 261.498 160.938 261.504 160.926C261.559 160.945 261.619 160.951 261.671 160.961C262.455 161.202 264.256 162.234 264.676 163.054C265.061 163.809 264.656 164.983 264.457 165.723C264.203 166.628 263.868 167.418 263.4 168.083L263.383 168.09Z" fill="black"/>
<path d="M274.065 169.823C271.436 169.58 267.457 170.831 266.666 173.701C266.274 175.121 266.151 177.551 266.91 178.873C267.655 180.18 269.442 180.523 270.806 180.868C272.487 181.288 274.005 181.557 275.469 180.503C276.46 179.789 278.453 178.443 278.856 177.212C279.325 175.793 278.407 172.841 277.645 171.617C276.837 170.323 275.503 170.006 274.065 169.823ZM273.842 171.074C274.582 171.167 275.266 171.503 275.84 171.985C275.184 172.402 274.548 172.85 273.901 173.292C273.492 173.569 273.08 173.789 272.773 174.106C272.052 173.957 271.309 173.933 270.582 173.768C269.854 173.603 269.129 173.417 268.399 173.243C269.622 171.671 272.047 170.918 273.837 171.086L273.842 171.074ZM267.986 178.233C267.484 177.424 267.517 175.346 267.794 174.375C267.814 174.377 267.821 174.394 267.841 174.396C268.683 174.586 269.522 174.817 270.364 175.007C271.008 175.155 271.668 175.19 272.308 175.301C272.233 176.768 272.866 178.271 272.906 179.733C272.912 179.75 272.918 179.767 272.925 179.784C272.301 179.822 271.658 179.78 271.02 179.62C270.231 179.42 268.504 179.084 267.986 178.233ZM276.867 177.601C276.151 178.59 275.213 179.237 274.166 179.566C274.114 178.224 273.496 176.841 273.587 175.523C273.638 174.799 274.309 174.551 274.863 174.172C275.471 173.754 276.076 173.327 276.705 172.94C277.655 174.307 277.925 176.157 276.873 177.618L276.867 177.601Z" fill="black"/>
<path d="M269.099 160.657C270.268 160.398 270.988 159.214 270.79 158.052C270.589 156.832 269.667 156.324 268.509 156.299C268.383 156.297 268.281 156.335 268.202 156.383C267.065 156.727 266.085 157.679 266.267 158.953C266.44 160.202 267.941 160.921 269.099 160.657Z" fill="black"/>
<path d="M274.129 161.572C274.003 161.57 273.901 161.608 273.823 161.657C272.685 162 271.705 162.952 271.887 164.227C272.06 165.476 273.562 166.194 274.719 165.93C275.888 165.671 276.608 164.487 276.41 163.325C276.209 162.106 275.287 161.597 274.129 161.572Z" fill="black"/>
<path d="M261.977 175.9C261.851 175.899 261.749 175.936 261.67 175.985C260.533 176.329 259.553 177.28 259.735 178.555C259.907 179.804 261.409 180.522 262.566 180.258C263.735 179.999 264.456 178.816 264.257 177.653C264.057 176.434 263.135 175.925 261.977 175.9Z" fill="black"/>
<path d="M273.071 138.029C273.362 138.163 273.799 138.04 273.912 137.718C274.309 136.625 274.723 135.526 275.033 134.407C275.112 134.126 274.903 133.847 274.672 133.72C271.917 132.171 263.179 126.118 262.958 133.19C262.882 135.593 263.412 138.148 263.648 140.532C263.755 141.603 263.862 142.674 263.971 143.753C256.917 146.345 249.804 148.775 242.756 151.384C242.654 151.421 242.578 151.478 242.515 151.541C242.336 151.684 242.249 151.919 242.381 152.198C246.489 160.767 250.79 169.255 255.464 177.527C256.689 179.69 257.931 181.846 259.213 183.978C259.889 185.099 260.624 187.164 261.839 187.786C262.768 188.262 263.861 187.694 264.748 187.404C267.129 186.61 269.506 185.807 271.863 184.925C273.944 184.155 276 183.345 278.074 182.558C279.243 182.116 281.271 181.674 282.147 180.703C284.019 178.639 282.051 174.183 281.582 171.847C279.476 161.33 277.378 150.811 275.271 140.295C275.196 139.908 274.836 139.587 274.423 139.749C272.486 140.543 270.526 141.298 268.574 142.05C268.356 139.948 268.195 137.845 268.092 135.74C269.764 136.502 271.428 137.266 273.086 138.043L273.071 138.029ZM265.123 153.541C263.494 153.941 261.832 154.248 260.157 154.549C255.372 155.394 251.337 156.752 247.417 159.622C246.212 157.201 245.015 154.776 243.844 152.342C250.584 149.867 257.369 147.539 264.109 145.063C264.405 147.899 264.73 150.733 265.126 153.55L265.123 153.541ZM279.092 165.875L280.305 171.943C280.681 173.821 281.535 176.102 281.517 178.011C281.486 180.378 279.467 180.662 277.614 181.367C275.718 182.088 273.829 182.826 271.93 183.539C270.141 184.211 268.346 184.865 266.548 185.483C265.706 185.765 264.631 186.356 263.73 186.4C261.886 186.504 261.857 185.906 261.119 184.692C259.027 181.257 257.016 177.782 255.076 174.262C252.618 169.813 250.277 165.312 247.996 160.769C253.241 156.887 258.735 156.369 264.89 154.999C268.923 154.105 272.767 152.44 275.857 149.703C276.937 155.097 278.016 160.49 279.095 165.884L279.092 165.875ZM274.158 141.199C274.625 143.556 275.1 145.909 275.567 148.266C273.815 149.977 271.843 151.17 269.738 152.055C269.388 149.153 269.009 146.252 268.693 143.338C270.521 142.642 272.343 141.929 274.158 141.199Z" fill="black"/>
</g>
<g clip-path="url(#clip3_305_3233)">
<path d="M266.409 166.886C266.794 165.71 267.478 164.009 266.965 162.78C266.38 161.384 264.514 160.385 263.192 159.812C260.135 158.492 256.687 161.071 255.339 163.742C254.727 165.089 254.278 166.404 254.983 167.813C255.605 169.051 257.615 171.377 259.022 171.735C260.238 172.047 262.518 171.087 263.612 170.625C265.29 169.916 265.847 168.552 266.406 166.878L266.409 166.886ZM261.211 160.825C260.985 161.518 260.758 162.21 260.52 162.896C260.279 163.603 259.894 164.258 259.639 164.951C259.263 165.032 258.892 165.227 258.48 165.418C257.7 165.765 256.912 166.086 256.145 166.466C256.065 165.781 256.167 165.039 256.503 164.277C257.347 162.594 259.24 161.005 261.22 160.822L261.211 160.825ZM261.173 170.06C259.196 170.405 257.279 169.348 256.483 167.693C257.463 167.185 259.452 165.908 260.428 166.406C261.591 166.989 262.444 168.276 263.522 169.026C262.909 169.533 262.136 169.897 261.164 170.063L261.173 170.06ZM264.383 168.09C264.383 168.09 264.376 168.073 264.365 168.067C263.146 167.254 262.199 165.895 260.899 165.199C261.143 164.606 261.465 164.043 261.675 163.434C261.96 162.614 262.211 161.778 262.504 160.955C262.504 160.955 262.498 160.938 262.504 160.926C262.559 160.945 262.619 160.951 262.671 160.961C263.455 161.202 265.256 162.234 265.676 163.054C266.061 163.809 265.656 164.983 265.457 165.723C265.203 166.628 264.868 167.418 264.4 168.083L264.383 168.09Z" fill="black"/>
<path d="M275.065 169.823C272.436 169.58 268.457 170.831 267.666 173.701C267.274 175.121 267.151 177.551 267.91 178.873C268.655 180.18 270.442 180.523 271.806 180.868C273.487 181.288 275.005 181.557 276.469 180.503C277.46 179.789 279.453 178.443 279.856 177.212C280.325 175.793 279.407 172.841 278.645 171.617C277.837 170.323 276.503 170.006 275.065 169.823ZM274.842 171.074C275.582 171.167 276.266 171.503 276.84 171.985C276.184 172.402 275.548 172.85 274.901 173.292C274.492 173.569 274.08 173.789 273.773 174.106C273.052 173.957 272.309 173.933 271.582 173.768C270.854 173.603 270.129 173.417 269.399 173.243C270.622 171.671 273.047 170.918 274.837 171.086L274.842 171.074ZM268.986 178.233C268.484 177.424 268.517 175.346 268.794 174.375C268.814 174.377 268.821 174.394 268.841 174.396C269.683 174.586 270.522 174.817 271.364 175.007C272.008 175.155 272.668 175.19 273.308 175.301C273.233 176.768 273.866 178.271 273.906 179.733C273.912 179.75 273.918 179.767 273.925 179.784C273.301 179.822 272.658 179.78 272.02 179.62C271.231 179.42 269.504 179.084 268.986 178.233ZM277.867 177.601C277.151 178.59 276.213 179.237 275.166 179.566C275.114 178.224 274.496 176.841 274.587 175.523C274.638 174.799 275.309 174.551 275.863 174.172C276.471 173.754 277.076 173.327 277.705 172.94C278.655 174.307 278.925 176.157 277.873 177.618L277.867 177.601Z" fill="black"/>
<path d="M270.099 160.657C271.268 160.398 271.988 159.214 271.79 158.052C271.589 156.832 270.667 156.324 269.509 156.299C269.383 156.297 269.281 156.335 269.202 156.383C268.065 156.727 267.085 157.679 267.267 158.953C267.44 160.202 268.941 160.921 270.099 160.657Z" fill="black"/>
<path d="M275.129 161.572C275.003 161.57 274.901 161.608 274.823 161.657C273.685 162 272.705 162.952 272.887 164.227C273.06 165.476 274.562 166.194 275.719 165.93C276.888 165.671 277.608 164.487 277.41 163.325C277.209 162.106 276.287 161.597 275.129 161.572Z" fill="black"/>
<path d="M262.977 175.9C262.851 175.899 262.749 175.936 262.67 175.985C261.533 176.329 260.553 177.28 260.735 178.555C260.907 179.804 262.409 180.522 263.566 180.258C264.735 179.999 265.456 178.816 265.257 177.653C265.057 176.434 264.135 175.925 262.977 175.9Z" fill="black"/>
<path d="M274.071 138.029C274.362 138.163 274.799 138.04 274.912 137.718C275.309 136.625 275.723 135.526 276.033 134.407C276.112 134.126 275.903 133.847 275.672 133.72C272.917 132.171 264.179 126.118 263.958 133.19C263.882 135.593 264.412 138.148 264.648 140.532C264.755 141.603 264.862 142.674 264.971 143.753C257.917 146.345 250.804 148.775 243.756 151.384C243.654 151.421 243.578 151.478 243.515 151.541C243.336 151.684 243.249 151.919 243.381 152.198C247.489 160.767 251.79 169.255 256.464 177.527C257.689 179.69 258.931 181.846 260.213 183.978C260.889 185.099 261.624 187.164 262.839 187.786C263.768 188.262 264.861 187.694 265.748 187.404C268.129 186.61 270.506 185.807 272.863 184.925C274.944 184.155 277 183.345 279.074 182.558C280.243 182.116 282.271 181.674 283.147 180.703C285.019 178.639 283.051 174.183 282.582 171.847C280.476 161.33 278.378 150.811 276.271 140.295C276.196 139.908 275.836 139.587 275.423 139.749C273.486 140.543 271.526 141.298 269.574 142.05C269.356 139.948 269.195 137.845 269.092 135.74C270.764 136.502 272.428 137.266 274.086 138.043L274.071 138.029ZM266.123 153.541C264.494 153.941 262.832 154.248 261.157 154.549C256.372 155.394 252.337 156.752 248.417 159.622C247.212 157.201 246.015 154.776 244.844 152.342C251.584 149.867 258.369 147.539 265.109 145.063C265.405 147.899 265.73 150.733 266.126 153.55L266.123 153.541ZM280.092 165.875L281.305 171.943C281.681 173.821 282.535 176.102 282.517 178.011C282.486 180.378 280.467 180.662 278.614 181.367C276.718 182.088 274.829 182.826 272.93 183.539C271.141 184.211 269.346 184.865 267.548 185.483C266.706 185.765 265.631 186.356 264.73 186.4C262.886 186.504 262.857 185.906 262.119 184.692C260.027 181.257 258.016 177.782 256.076 174.262C253.618 169.813 251.277 165.312 248.996 160.769C254.241 156.887 259.735 156.369 265.89 154.999C269.923 154.105 273.767 152.44 276.857 149.703C277.937 155.097 279.016 160.49 280.095 165.884L280.092 165.875ZM275.158 141.199C275.625 143.556 276.1 145.909 276.567 148.266C274.815 149.977 272.843 151.17 270.738 152.055C270.388 149.153 270.009 146.252 269.693 143.338C271.521 142.642 273.343 141.929 275.158 141.199Z" fill="black"/>
</g>
<defs>
<clipPath id="clip0_305_3233">
<rect width="40.7582" height="44" fill="white" transform="translate(16.2197 20.6016) rotate(15)"/>
</clipPath>
<clipPath id="clip1_305_3233">
<rect width="40.7582" height="44" fill="white" transform="translate(17.2197 20.6016) rotate(15)"/>
</clipPath>
<clipPath id="clip2_305_3233">
<rect width="36.8964" height="54" fill="white" transform="translate(237.832 139.934) rotate(-20.3114)"/>
</clipPath>
<clipPath id="clip3_305_3233">
<rect width="36.8964" height="54" fill="white" transform="translate(238.832 139.934) rotate(-20.3114)"/>
</clipPath>
</defs>
</svg>
