<svg width="29" height="29" viewBox="0 0 29 29" fill="none" xmlns="http://www.w3.org/2000/svg">
<path d="M9.1228 15.7537L9.02338 15.9472C8.6091 16.7292 7.95453 17.3661 7.15083 17.7692L6.95197 17.866C6.16484 18.253 6.16484 19.3494 6.95197 19.7445L7.15083 19.8412C7.95453 20.2443 8.6091 20.8812 9.02338 21.6633L9.1228 21.8568C9.52051 22.6227 10.6474 22.6227 11.0534 21.8568L11.1528 21.6633C11.5671 20.8812 12.2216 20.2443 13.0253 19.8412L13.2242 19.7445C14.0113 19.3575 14.0113 18.261 13.2242 17.866L13.0253 17.7692C12.2216 17.3661 11.5671 16.7292 11.1528 15.9472L11.0534 15.7537C10.6556 14.9878 9.5288 14.9878 9.1228 15.7537Z" fill="#8667F2"/>
<path d="M12.3708 14.3267L12.6359 14.4557C13.4645 14.8668 14.1273 15.5118 14.5499 16.318L14.6825 16.576C15.1382 17.4467 16.0496 17.9869 17.0521 17.9869C18.0547 17.9869 18.9661 17.4467 19.4301 16.576L19.5627 16.318C19.9852 15.5118 20.6481 14.8668 21.4767 14.4557L21.7418 14.3267C22.6366 13.8832 23.1918 12.9964 23.1918 12.0209C23.1918 11.0453 22.6366 10.1585 21.7418 9.70701L21.4767 9.57801C20.6481 9.16684 19.9852 8.52186 19.5627 7.71564L19.4301 7.45765C18.9744 6.58693 18.063 6.04676 17.0521 6.04676C16.0413 6.04676 15.1382 6.58693 14.6742 7.45765L14.5416 7.71564C14.119 8.52186 13.4562 9.16684 12.6276 9.57801L12.3625 9.70701C11.4676 10.1504 10.9125 11.0373 10.9125 12.0209C10.9125 13.0045 11.4676 13.8832 12.3625 14.3347L12.3708 14.3267ZM13.4976 11.8596L13.7627 11.7306C15.0636 11.0856 16.0993 10.0779 16.7621 8.8121L16.8947 8.55411C16.8947 8.55411 16.9444 8.45736 17.0521 8.45736C17.1599 8.45736 17.2013 8.52186 17.2096 8.55411L17.3421 8.8121C18.005 10.0779 19.0407 11.0856 20.3415 11.7306L20.6067 11.8596C20.6067 11.8596 20.7061 11.908 20.7061 12.0128C20.7061 12.1176 20.6315 12.1579 20.6067 12.166L20.3415 12.295C19.0407 12.94 18.005 13.9477 17.3421 15.2135L17.2096 15.4715C17.2096 15.4715 17.1599 15.5682 17.0521 15.5682C16.9444 15.5682 16.903 15.4957 16.8947 15.4715L16.7621 15.2135C16.0993 13.9477 15.0636 12.94 13.7627 12.295L13.4976 12.166C13.4976 12.166 13.3982 12.1176 13.3982 12.0128C13.3982 11.908 13.4728 11.8677 13.4976 11.8596Z" fill="#8667F2"/>
<path d="M23.7469 22.5259L19.165 23.0177C18.2287 23.1145 17.7564 24.1626 18.3116 24.9043L18.7175 25.4364C17.3753 25.9282 15.9419 26.1943 14.5085 26.1943C13.307 26.1943 12.1388 26.0169 11.0451 25.6944C10.8379 25.638 10.6391 25.5573 10.4402 25.4928C10.2579 25.4283 10.0757 25.3719 9.90165 25.2993C9.77737 25.251 9.66137 25.1945 9.54537 25.1381C9.2968 25.0252 9.03995 24.9124 8.79967 24.7834C8.7831 24.7753 8.76652 24.7672 8.75824 24.7592C5.038 22.7678 2.5026 18.9221 2.5026 14.504C2.5026 14.4879 2.5026 14.4718 2.5026 14.4476C2.5026 14.1735 2.51917 13.9074 2.53574 13.6333C2.54403 13.4882 2.5606 13.3511 2.57717 13.206C2.60202 13.0045 2.62688 12.8029 2.66002 12.6013C2.68488 12.4724 2.70145 12.3434 2.72631 12.2063C2.78431 11.9241 2.85888 11.6419 2.93345 11.3598C3.21516 10.3842 3.62116 9.44096 4.15972 8.55411C4.50772 7.98169 4.30886 7.23997 3.72058 6.90135C3.1323 6.56274 2.37003 6.75623 2.02203 7.32865C1.44204 8.28806 0.986329 9.31196 0.646619 10.3681C0.630048 10.4165 0.605191 10.4568 0.588619 10.5052C0.572048 10.5697 0.555477 10.6342 0.538906 10.6987C0.439478 11.0453 0.348337 11.392 0.282052 11.7387C0.248909 11.8919 0.232338 12.0451 0.199196 12.1982C0.157767 12.4401 0.124625 12.69 0.0914824 12.94C0.0749112 13.1093 0.0500544 13.2786 0.0417687 13.4479C0.0169119 13.7704 0.000340505 14.0848 0.000340505 14.4073C-0.0162307 16.7695 0.572048 19.1156 1.76518 21.2521C3.11573 23.6627 5.12085 25.5896 7.54025 26.8715C7.55682 26.8795 7.58168 26.8957 7.59825 26.9037C7.88825 27.0569 8.19482 27.194 8.50138 27.323C8.65053 27.3875 8.79138 27.46 8.94052 27.5165C9.15595 27.6051 9.37137 27.6696 9.5868 27.7503C9.82708 27.8389 10.0674 27.9276 10.3159 28.0002C10.3491 28.0083 10.3739 28.0244 10.4071 28.0324C10.4319 28.0324 10.4568 28.0324 10.4816 28.0405C11.7576 28.4033 13.1082 28.6049 14.5002 28.6049C16.4721 28.6049 18.4193 28.2017 20.2338 27.4439L21.0375 28.5162C21.5927 29.2498 22.7609 29.1289 23.1421 28.2904L24.998 24.1868C25.3792 23.3483 24.6832 22.4292 23.7469 22.5259Z" fill="#8667F2"/>
<path d="M14.5085 0.395139C12.5365 0.395139 10.5894 0.79825 8.77481 1.5561L7.9711 0.483823C7.41597 -0.249839 6.2477 -0.128906 5.86656 0.709565L4.01058 4.81324C3.62944 5.65171 4.32543 6.5708 5.26171 6.47406L9.84365 5.98226C10.7799 5.88551 11.2522 4.83742 10.6971 4.0957L10.2911 3.56359C11.6333 3.0718 13.0668 2.80574 14.5002 2.80574C21.1287 2.80574 26.5143 8.04619 26.5143 14.496C26.5143 16.568 25.9343 18.6238 24.8406 20.4217C24.4926 20.9941 24.6915 21.7358 25.2798 22.0745C25.4786 22.1873 25.694 22.2438 25.9095 22.2438C26.332 22.2438 26.7463 22.0341 26.9783 21.6472C28.2957 19.4704 29 16.9953 29 14.4879C29 6.70786 22.4958 0.379014 14.5002 0.379014L14.5085 0.395139Z" fill="#8667F2"/>
</svg>
