<svg width="23" height="23" viewBox="0 0 23 23" fill="none" xmlns="http://www.w3.org/2000/svg">
<path d="M11.356 6.36594C11.356 6.8449 11.6184 7.27824 12.0461 7.49491L13.7628 8.3673C14.3218 8.65239 14.7723 9.10284 15.0575 9.66163L15.9301 11.3779C16.1468 11.8055 16.5803 12.0678 17.0594 12.0678C17.5385 12.0678 17.9719 11.8055 18.1886 11.3779L19.0612 9.66163C19.3464 9.10284 19.797 8.65239 20.3559 8.3673L22.0726 7.49491C22.5004 7.27824 22.7627 6.8449 22.7627 6.36594C22.7627 5.88698 22.5004 5.45364 22.0726 5.23697L20.3559 4.36458C19.797 4.07949 19.3464 3.62904 19.0612 3.07026L18.1886 1.35399C17.9719 0.926349 17.5385 0.664062 17.0594 0.664062C16.5803 0.664062 16.1468 0.926349 15.9301 1.35399L15.0575 3.07026C14.7723 3.62904 14.3218 4.07949 13.7628 4.36458L12.0461 5.23697C11.6184 5.45364 11.356 5.88698 11.356 6.36594ZM14.5385 5.88698C15.4225 5.43653 16.1297 4.7295 16.5803 3.84571L17.0594 2.9049L17.5385 3.84571C17.989 4.7295 18.6962 5.43653 19.5802 5.88698L20.5213 6.36594L19.5802 6.8449C18.6962 7.29535 17.989 8.00238 17.5385 8.88617L17.0594 9.82698L16.5803 8.88617C16.1297 8.00238 15.4225 7.29535 14.5385 6.8449L13.5974 6.36594L14.5385 5.88698Z" fill="black"/>
<path d="M7.07853 8.93179C8.02349 8.93179 8.78953 8.16594 8.78953 7.22122C8.78953 6.2765 8.02349 5.51066 7.07853 5.51066C6.13357 5.51066 5.36753 6.2765 5.36753 7.22122C5.36753 8.16594 6.13357 8.93179 7.07853 8.93179Z" fill="black"/>
<path d="M21.9072 9.78707C21.4338 9.78707 21.0517 10.1691 21.0517 10.6423V16.3442C21.0517 16.4126 21.046 16.4811 21.0403 16.5495L18.5365 14.3999C17.3502 13.3793 15.6278 13.3793 14.4415 14.3999L13.1184 15.5403L9.15454 12.1362C7.96825 11.1156 6.24584 11.1156 5.05955 12.1362L2.23639 14.5652V7.22692C2.23639 4.55274 4.40937 2.38033 7.08423 2.38033H12.7876C13.261 2.38033 13.6431 1.9983 13.6431 1.52505C13.6431 1.05179 13.261 0.669765 12.7876 0.669765H7.08423C3.46831 0.669765 0.525391 3.61193 0.525391 7.22692V16.3499C0.525391 19.9649 3.46831 22.9071 7.08423 22.9071H16.2096C19.8255 22.9071 22.7684 19.9649 22.7684 16.3499V10.6481C22.7684 10.1748 22.3863 9.79277 21.9129 9.79277L21.9072 9.78707ZM2.2535 16.7947L6.1717 13.4306C6.71352 12.963 7.50058 12.9687 8.03669 13.4306L11.8009 16.6635L6.56523 21.1623C4.27819 20.9228 2.46453 19.0868 2.2535 16.7947ZM16.2039 21.1908H9.16025L15.5594 15.6942C16.1012 15.2267 16.8883 15.2267 17.4244 15.6942L20.584 18.4083C19.8084 20.0504 18.1373 21.1908 16.2039 21.1908Z" fill="black"/>
</svg>
