<svg width="25" height="25" viewBox="0 0 25 25" fill="none" xmlns="http://www.w3.org/2000/svg">
<path d="M11.1714 17.797C10.5977 18.4676 9.86464 18.9832 9.03954 19.2963C8.21443 19.6094 7.32384 19.7099 6.4497 19.5887C5.57557 19.4674 4.74598 19.1282 4.03729 18.6023C3.32859 18.0764 2.76356 17.3807 2.39419 16.5792C2.02482 15.7777 1.86297 14.8962 1.92354 14.0157C1.98412 13.1353 2.26517 12.2843 2.74083 11.5409C3.21649 10.7976 3.87148 10.1858 4.64552 9.7619C5.41956 9.33801 6.28778 9.11562 7.17029 9.1152C7.58353 9.11736 7.99527 9.16515 8.39802 9.2577V9.2577C7.878 8.42647 7.60433 7.46483 7.60876 6.48435C7.60876 5.08886 8.16312 3.75053 9.14988 2.76377C10.1366 1.77701 11.475 1.22266 12.8705 1.22266C14.2659 1.22266 15.6043 1.77701 16.591 2.76377C17.5778 3.75053 18.1322 5.08886 18.1322 6.48435C18.1366 7.46483 17.8629 8.42647 17.3429 9.2577V9.2577C17.7456 9.16515 18.1574 9.11736 18.5706 9.1152C19.4531 9.11562 20.3214 9.33801 21.0954 9.7619C21.8694 10.1858 22.5244 10.7976 23.0001 11.5409C23.4758 12.2843 23.7568 13.1353 23.8174 14.0157C23.8779 14.8962 23.7161 15.7777 23.3467 16.5792C22.9774 17.3807 22.4123 18.0764 21.7036 18.6023C20.9949 19.1282 20.1654 19.4674 19.2912 19.5887C18.4171 19.7099 17.5265 19.6094 16.7014 19.2963C15.8763 18.9832 15.1432 18.4676 14.5695 17.797L16.3783 23.5849H9.36266L11.1714 17.797Z" stroke="black" stroke-width="2.23504" stroke-linecap="round" stroke-linejoin="round"/>
</svg>
