<svg width="29" height="29" viewBox="0 0 29 29" fill="none" xmlns="http://www.w3.org/2000/svg">
<path d="M28.6188 2.54363L28.4917 2.47576C27.9759 2.21182 27.5498 1.78198 27.2882 1.26165L27.2209 1.13345C26.9593 0.620657 26.2417 0.620657 25.98 1.13345L25.9127 1.26165C25.6511 1.78198 25.225 2.21182 24.7092 2.47576L24.5822 2.54363C24.0738 2.80757 24.0738 3.53151 24.5822 3.79545L24.7092 3.86332C25.225 4.12726 25.6511 4.5571 25.9127 5.07743L25.98 5.20563C26.2417 5.71842 26.9593 5.71842 27.2209 5.20563L27.2882 5.07743C27.5498 4.5571 27.9759 4.12726 28.4917 3.86332L28.6188 3.79545C29.1271 3.53151 29.1271 2.80757 28.6188 2.54363Z" fill="black"/>
<path d="M25.4792 14.5792L25.2998 14.4887C24.5747 14.1116 23.9841 13.5159 23.6104 12.7844L23.5207 12.6034C23.1619 11.887 22.1452 11.887 21.779 12.6034L21.6893 12.7844C21.3155 13.5159 20.725 14.1116 19.9999 14.4887L19.8205 14.5792C19.1103 14.9412 19.1103 15.9667 19.8205 16.3363L19.9999 16.4267C20.725 16.8038 21.3155 17.3995 21.6893 18.131L21.779 18.312C22.1378 19.0284 23.1544 19.0284 23.5207 18.312L23.6104 18.131C23.9841 17.3995 24.5747 16.8038 25.2998 16.4267L25.4792 16.3363C26.1893 15.9743 26.1893 14.9487 25.4792 14.5792Z" fill="black"/>
<path d="M20.9716 8.37288L21.2109 8.25222C22.0182 7.83746 22.519 7.00795 22.519 6.08793C22.519 5.16792 22.0182 4.34595 21.2109 3.92365L20.9716 3.80299C20.2241 3.4184 19.6261 2.81511 19.2449 2.061L19.1253 1.81969C18.7141 1.00525 17.8919 0.5 16.9874 0.5C16.0829 0.5 15.2606 1.00525 14.842 1.81969L14.7224 2.061C14.3412 2.81511 13.7431 3.4184 12.9956 3.80299L12.7564 3.92365C11.9491 4.33841 11.4483 5.16792 11.4483 6.08039C11.4483 6.99286 11.9491 7.82238 12.7564 8.24468L12.9956 8.36534C13.7431 8.74993 14.3412 9.35322 14.7224 10.1073L14.842 10.3486C15.2531 11.1631 16.0754 11.6683 16.9874 11.6683C17.8993 11.6683 18.7141 11.1631 19.1327 10.3486L19.2523 10.1073C19.6336 9.35322 20.2316 8.74993 20.9791 8.36534L20.9716 8.37288ZM17.2415 9.08928L17.1219 9.3306C17.1219 9.3306 17.0771 9.42109 16.9799 9.42109C16.8827 9.42109 16.8453 9.35322 16.8379 9.3306L16.7183 9.08928C16.1202 7.90533 15.1858 6.9627 14.0122 6.35941L13.773 6.23876C13.773 6.23876 13.6833 6.19351 13.6833 6.09548C13.6833 5.99744 13.7506 5.95974 13.773 5.9522L14.0122 5.83154C15.1858 5.22825 16.1202 4.28562 16.7183 3.10167L16.8379 2.86036C16.8379 2.86036 16.8827 2.76986 16.9799 2.76986C17.0771 2.76986 17.1144 2.83019 17.1219 2.86036L17.2415 3.10167C17.8395 4.28562 18.7739 5.22825 19.9475 5.83154L20.1867 5.9522C20.1867 5.9522 20.2765 5.99744 20.2765 6.09548C20.2765 6.19351 20.2092 6.23121 20.1867 6.23876L19.9475 6.35941C18.7739 6.9627 17.8395 7.90533 17.2415 9.08928Z" fill="black"/>
<path d="M9.75138 9.97913C8.92911 9.14961 7.77046 8.84043 6.64171 9.14961C5.52043 9.45879 4.67573 10.3185 4.3842 11.4572L2.34347 19.3904L1.22219 20.5215C-0.407398 22.1655 -0.407398 24.8501 1.22219 26.4941L1.98466 27.2633C2.79946 28.0852 3.87589 28.5 4.94484 28.5C6.01379 28.5 7.09022 28.0852 7.90501 27.2633L9.04872 26.1095L16.7257 23.7265C17.8096 23.3872 18.617 22.5275 18.8935 21.4189C19.1701 20.3104 18.8487 19.1642 18.0488 18.3573L9.75138 9.97913ZM6.32775 25.6646C5.57275 26.4262 4.33187 26.4262 3.57688 25.6646L2.81441 24.8954C2.05941 24.1337 2.05941 22.8819 2.81441 22.1203L3.27787 21.6527L6.79121 25.197L6.32775 25.6646ZM16.7257 20.876C16.6884 21.0343 16.5463 21.4265 16.0754 21.5698L8.77213 23.8321L4.60098 19.6242L6.552 12.0228C6.67908 11.5326 7.06779 11.3742 7.23225 11.329C7.38923 11.2837 7.80784 11.2234 8.16665 11.5778L16.4716 19.956C16.8154 20.3029 16.7631 20.7176 16.7257 20.876Z" fill="black"/>
</svg>
