<svg width="25" height="28" viewBox="0 0 25 28" fill="none" xmlns="http://www.w3.org/2000/svg">
<path d="M18.7506 13.8762C20.4247 13.7565 21.9854 13.051 23.1137 11.9034C24.2415 10.7562 24.8511 9.25426 24.8174 7.70534C24.7837 6.15643 24.109 4.67842 22.9319 3.57388C21.7544 2.46934 20.1641 1.82189 18.4863 1.76496C16.8084 1.70764 15.1706 2.2447 13.908 3.26611C12.6459 4.28753 11.8549 5.7156 11.6968 7.25791H8.94156L6.8255 1.39524C6.66288 0.943583 6.20505 0.638882 5.68965 0.63965H2.10288C1.44283 0.63965 0.907471 1.13324 0.907471 1.74261C0.907471 2.35162 1.44285 2.84558 2.10288 2.84558H4.82856L6.42468 7.25792H3.29829C2.63824 7.25792 2.10288 7.75151 2.10288 8.36089V12.7732C2.10372 14.6291 2.82923 16.4231 4.14679 17.8258C5.46399 19.2288 7.28481 20.1467 9.27588 20.4118V20.4946V24.9069H5.68954C5.02907 24.9069 4.49413 25.4009 4.49413 26.0099C4.49413 26.6193 5.02909 27.1128 5.68954 27.1128H15.2535C15.9139 27.1128 16.4493 26.6192 16.4493 26.0099C16.4493 25.4009 15.9139 24.9069 15.2535 24.9069H11.6671V20.4946V20.4118C13.4538 20.1733 15.1092 19.4078 16.3855 18.2301C17.6622 17.0521 18.4919 15.5248 18.7505 13.8763L18.7506 13.8762ZM18.2423 3.94863C19.642 3.97941 20.9321 4.6542 21.6797 5.74603C22.4278 6.83786 22.5341 8.2028 21.9633 9.382C21.3928 10.5616 20.2204 11.3994 18.8402 11.6149V8.36098C18.8402 8.06859 18.7143 7.78775 18.4899 7.58115C18.266 7.37417 17.9616 7.25799 17.6447 7.25799H14.1181C14.2611 6.34159 14.7565 5.50373 15.5136 4.89626C16.2708 4.28879 17.239 3.95255 18.2422 3.9487L18.2423 3.94863ZM10.4718 18.2884C8.88609 18.2884 7.36575 17.7071 6.24496 16.673C5.12373 15.6385 4.49416 14.2359 4.49416 12.7731V9.46374H16.4493V12.7731C16.4493 14.2359 15.8193 15.6385 14.6985 16.673C13.5773 17.7072 12.0571 18.2884 10.4718 18.2884Z" fill="black"/>
</svg>
